<svg width="430" height="172" viewBox="0 0 430 172" fill="none" xmlns="http://www.w3.org/2000/svg">
<path d="M0.09375 0H429.575V171.792H0.09375V0Z" fill="black"/>
<path d="M203.415 144.094C182.787 144.094 168.615 132.13 168.615 116.449C168.615 103.244 177.994 93.3416 191.747 87.9766C196.33 92.3086 201.747 97.0546 207.792 102.42L238.216 129.446C228.416 138.938 216.752 144.094 203.415 144.094ZM288.645 155.443L257.803 128.004C258.1 127.488 258.45 127.004 258.846 126.561L286.146 86.9486H269.473L247.384 118.512L221.338 95.1986C197.584 74.5666 185.079 64.2546 185.079 49.3986C185.079 35.5746 195.289 26.0866 209.668 26.0866C223.004 26.0866 233.009 34.1316 235.092 49.6046H250.928C248.219 26.0856 232.382 12.0566 209.876 12.0566C186.122 12.0566 168.616 27.3236 168.616 48.9846C168.616 59.3006 172.785 67.7596 181.743 77.8706C165.284 84.4706 152.988 98.0886 152.988 116.655C152.988 141 172.994 158.124 203.209 158.124C221.546 158.124 236.547 151.524 248.844 138.939L267.389 155.439L288.645 155.443Z" fill="white"/>
<path d="M327.589 140.714L412.105 24.5142V16.3242H304.217V31.0562H388.758L302.176 147.056V155.445H412.078V140.714H327.589Z" fill="white"/>
<path d="M117.907 16.3262V79.1322H35.4598V16.3262H19.1348V155.445H35.4598V94.0712H117.907V155.445H134.232V16.3262H117.907Z" fill="white"/>
</svg>
