<svg width="430" height="172" viewBox="0 0 430 172" fill="none" xmlns="http://www.w3.org/2000/svg">
<path d="M0 0H429.481V171.792H0V0Z" fill="white"/>
<path d="M203.322 144.094C182.694 144.094 168.522 132.13 168.522 116.449C168.522 103.244 177.901 93.3416 191.654 87.9766C196.237 92.3086 201.654 97.0546 207.699 102.42L238.123 129.446C228.323 138.938 216.659 144.094 203.322 144.094ZM288.552 155.443L257.71 128.004C258.006 127.488 258.356 127.004 258.753 126.561L286.053 86.9486H269.38L247.291 118.512L221.245 95.1986C197.491 74.5666 184.986 64.2546 184.986 49.3986C184.986 35.5746 195.196 26.0866 209.575 26.0866C222.911 26.0866 232.916 34.1316 234.999 49.6046H250.835C248.126 26.0856 232.289 12.0566 209.783 12.0566C186.029 12.0566 168.523 27.3236 168.523 48.9846C168.523 59.3006 172.692 67.7596 181.65 77.8706C165.191 84.4706 152.895 98.0886 152.895 116.655C152.895 141 172.901 158.124 203.116 158.124C221.453 158.124 236.454 151.524 248.751 138.939L267.296 155.439L288.552 155.443Z" fill="black"/>
<path d="M327.495 140.714L412.011 24.5142V16.3242H304.123V31.0562H388.664L302.082 147.056V155.445H411.984V140.714H327.495Z" fill="black"/>
<path d="M117.813 16.3262V79.1322H35.366V16.3262H19.041V155.445H35.366V94.0712H117.813V155.445H134.138V16.3262H117.813Z" fill="black"/>
</svg>
